<svg xmlns="http://www.w3.org/2000/svg" version="1.0" width="100%" height="100%" viewBox="0 0 1554.000000 1086.000000">
    <path fill="white" d="m 1027.1056,0 c -2.0973,0 -3.4972,9.7884018 -3.4972,22.022602 0,13.981899 -1.7478,24.467713 -5.2432,29.011812 -4.5442,6.291797 -4.8937,5.942591 -5.2433,-6.641108 0,-6.990897 -1.3947,-12.933987 -3.492,-12.933987 -1.7478,0 -3.4972,7.688289 -3.4972,17.475691 0,11.5351 -2.0997,19.925989 -5.9447,24.470108 -6.2919,7.3405 -6.28988,6.988481 -8.38718,-5.944819 l -2.0993,-13.282091 -0.69637,16.431197 c -0.34954,12.933301 -2.79844,18.873183 -12.5858,30.757825 l -12.23247,14.6852 v -12.93396 c 0,-7.340523 -1.39991,-11.884642 -3.49719,-10.486442 -1.74774,1.04864 -3.49206,8.734492 -3.49206,16.774112 0,9.08824 -2.79982,17.82765 -6.99438,23.42043 l -6.98925,8.74045 V 126.5389 c 0,-8.03963 -1.74809,-14.68523 -3.8454,-14.68523 -2.44684,0 -3.14558,5.59242 -1.39784,17.1275 2.7964,20.9729 -0.34748,23.42218 -34.6032,26.91766 -12.93328,1.3982 -24.12294,3.84504 -25.17158,5.24322 -1.04866,1.74774 -0.34615,3.14384 1.75115,3.14384 2.09728,0 9.08452,4.54414 15.37637,10.48646 6.64142,5.59276 13.28557,10.48644 15.03331,10.48644 1.39818,0 -1.7498,-4.89368 -7.34256,-10.48644 -9.08826,-9.4378 -9.43576,-10.48646 -3.1439,-10.48646 3.84504,0 12.23214,3.84679 18.87356,8.74047 14.33148,10.48644 19.5771,7.69214 5.94472,-3.14386 -8.38914,-6.99096 -9.08724,-8.38916 -4.19356,-10.48644 3.14594,-1.04864 8.73699,-2.09938 12.23247,-2.09938 3.84504,0 8.38916,-3.14419 10.48646,-6.98921 3.14592,-5.59278 7.34152,-6.99446 22.02254,-6.99446 12.93328,0 16.77901,-1.04514 12.93397,-3.49198 -2.79638,-1.74774 -8.73804,-3.49723 -13.28216,-3.49723 -7.69006,0 -7.69345,-0.34956 3.49209,-15.72968 11.18554,-14.68102 12.23451,-15.38012 30.06147,-15.72966 9.78739,0 18.17709,-1.74949 18.17709,-3.49723 0,-2.097282 -6.2921,-3.491982 -14.3317,-3.491982 -18.52608,0 -15.02955,-4.19633 11.5362,-13.983649 22.0215,-7.69008 32.8592,-13.98369 24.47,-13.98369 -2.4468,0 -10.1416,2.446799 -17.1326,5.243199 -17.1279,7.3405 -19.9212,6.644899 -12.5807,-3.492001 3.8451,-4.893701 13.9823,-11.189706 24.8183,-14.685206 9.7873,-3.145899 18.1772,-7.335583 18.1772,-9.083386 0,-3.145898 -5.9417,-2.097904 -18.5254,2.795693 -5.2433,2.0973 -5.5972,1.394408 -2.8008,-5.596593 1.7476,-4.893701 7.3422,-9.433612 13.9836,-11.530913 9.0882,-2.7964 10.836,-4.54589 10.4864,-13.98369 l -0.3481,-10.8345 -3.8454,9.436696 c -2.0973,5.243199 -6.9906,9.786006 -11.8843,10.834604 -7.3405,1.3982 -8.0389,0.351602 -8.0389,-13.630297 C 1030.6028,6.9924179 1029.2029,0 1027.1056,0 Z M 523.10079,4.4137115 c -1.5292,-0.3932035 -2.8418,4.673507 -2.8418,15.5095065 0,6.6414 -1.3988,8.391181 -7.6907,7.342583 -4.8937,-0.6991 -8.3868,-4.197392 -9.785,-9.790089 -1.7477,-7.340604 -2.4444,-7.6893934 -4.5417,-2.795713 -3.4955,9.437799 1.0459,16.781403 11.1828,18.878703 5.2432,1.048702 10.8353,5.592801 13.2822,10.486502 4.1945,9.088198 3.1445,9.433196 -15.3815,2.442299 -2.4469,-1.048702 -4.5418,0 -4.5418,2.0993 0,2.097301 6.991,5.941716 15.7297,8.039016 8.7387,2.446799 19.9232,8.740387 25.1664,13.983586 10.4865,11.185602 7.6901,12.231805 -10.4864,4.541703 -14.3315,-5.942299 -21.3218,-6.638295 -18.5254,-2.094092 1.0486,1.3982 11.884,6.290401 23.7686,10.834583 29.36208,10.486419 32.50764,13.983649 11.8843,13.983649 -10.1369,0 -15.73,1.3947 -14.3318,3.491982 1.0486,1.74774 9.7904,3.49723 18.87865,3.49723 15.72968,0 17.82355,1.04864 29.70819,15.72966 13.28282,15.72968 12.5834,18.1751 -3.84536,16.07782 -2.09728,-0.34956 -4.88957,1.05179 -6.28777,3.14909 -1.3982,2.09728 3.49479,3.49198 13.28213,3.49198 10.836,0 17.12513,2.10078 21.66927,6.99446 3.49548,3.84502 9.7904,6.98921 13.63544,6.98921 14.33148,0 16.42741,5.24286 5.59141,11.88428 -5.94232,3.14594 -9.78905,7.68902 -8.74041,9.43676 1.39818,1.74774 8.04233,-0.6977 15.03329,-5.59136 6.99096,-4.89368 16.0782,-8.74047 19.92324,-8.74047 5.94232,0 5.59105,1.05178 -3.49719,8.3923 -5.59278,4.54412 -9.43711,9.43501 -8.03891,11.18275 2.44682,2.09728 29.71053,-18.87631 30.40963,-23.42043 0.34954,-1.04864 -9.08449,-3.14488 -20.61957,-4.19352 -39.14939,-4.19458 -39.5027,-4.54343 -37.05589,-23.76859 1.3982,-10.1369 0.69946,-17.47529 -1.39782,-18.87349 -2.0973,-1.39818 -3.49206,3.49619 -3.49206,12.93399 l -0.35334,15.02812 -8.38707,-10.48644 c -6.29188,-7.69006 -8.74043,-14.67858 -8.74043,-25.51458 0,-8.389165 -1.39749,-14.336026 -2.79569,-13.287365 -1.74774,1.048639 -2.44511,6.995501 -1.74601,13.287365 l 1.74601,11.53089 -12.58066,-13.97842 C 567.80133,91.233828 566.05153,86.337356 565.70199,72.355416 c 0,-9.088198 -1.39614,-16.425905 -3.14388,-16.425905 -2.0973,0 -2.79844,2.792088 -2.09934,6.287589 0.69908,3.4955 0,8.393013 -1.39787,10.839916 -4.89366,8.0396 -12.23661,-6.29161 -11.18791,-22.370808 0.3495,-8.389098 -1.0466,-16.082699 -3.1439,-17.480899 -2.0973,-1.398201 -3.4972,2.7989 -3.4972,11.187997 0,12.234201 -0.3468,12.582011 -5.9396,6.98921 -4.1946,-4.194517 -6.9903,-13.628901 -8.0389,-29.708099 -0.8739,-11.010718 -2.6233,-16.8674187 -4.1526,-17.2607055 z M 642.6043,124.78766 c 0,2.44684 1.7443,5.24426 3.49204,6.29292 7.34052,4.54412 3.14558,8.74045 -9.0886,8.74045 -21.67197,0 -9.43402,5.943 16.08299,7.69074 25.51702,2.0973 30.75889,4.54412 42.29397,20.9729 l 7.34254,9.78491 -10.83973,3.84537 c -5.94232,2.09728 -10.83464,5.24532 -10.83464,7.3426 0,1.74774 3.14525,2.09449 8.03891,0.69631 11.88464,-4.19458 24.46977,-3.49444 25.86795,1.04968 1.04866,2.44684 -0.70081,4.54169 -3.49719,4.54169 -2.79638,0 -7.33812,2.79883 -9.78496,5.94475 -4.19458,5.24324 -4.19766,5.5907 2.09422,3.14386 15.72966,-6.29188 19.57776,-6.29188 24.1219,0 4.19456,5.59276 3.84573,7.6925 -2.79569,16.4312 -31.10978,41.59624 -54.88283,52.08163 -236.29832,103.81475 -62.9187,18.1765 -212.1745,69.90791 -246.7797,85.63759 -10.4864,4.89366 -19.9241,8.74041 -20.9728,8.74041 -1.0487,0 -19.9243,8.74043 -41.9458,19.22687 -22.0215,10.48644 -41.2454,19.22172 -42.2939,19.22172 -4.5443,0 -48.586601,37.40099 -70.957701,60.47115 -47.5385,48.58722 -62.2202999,78.64936 -65.36609988,132.13024 -2.44690002,39.49894 4.19119998,60.12601 24.46489988,79.00161 22.7206,20.9729 39.1514,24.11544 96.477401,19.22176 26.216,-2.44684 73.7571,-4.19356 105.5658,-4.19356 52.7818,0 60.12,0.70081 83.1902,8.74041 20.9728,7.34052 32.5079,9.08724 62.9186,9.4368 23.7693,0 42.9955,-1.74774 53.4819,-5.24322 l 16.0778,-5.24322 2.4476,12.93392 c 6.2918,34.25572 27.9618,61.51842 60.8193,76.549 17.1279,8.0396 24.1192,9.08997 56.27761,8.74041 39.14938,0 56.98011,-4.89297 89.48809,-23.76857 32.85752,-19.22514 65.01219,-59.42662 73.05179,-90.88596 2.44684,-9.4378 3.49718,-7.33879 13.98364,24.47009 12.58372,39.1494 28.66159,67.81236 37.05075,68.1619 9.08824,0 26.21951,-30.06252 38.45371,-67.81371 l 10.83463,-34.6032 6.29288,17.47569 c 13.63238,38.4503 42.29534,69.20916 83.89156,89.48296 42.99442,21.32244 86.33575,24.8203 126.53375,11.18792 32.8574,-11.53508 65.7143,-51.73383 65.7143,-81.09587 v -10.83458 l 20.2766,5.24322 c 32.1583,9.08824 80.7422,7.34014 113.5996,-3.8454 24.818,-8.38916 31.8089,-9.08859 83.8916,-9.08859 31.1099,0 79.7015,1.74672 107.6654,4.19356 49.9853,3.84504 51.3791,3.84469 70.6042,-3.84537 24.818,-10.1369 39.1522,-25.86419 46.4927,-51.73077 10.1369,-34.25572 0,-94.73026 -20.6247,-125.14094 -15.0306,-22.3711 -57.6745,-67.45938 -82.8419,-87.38362 -16.0792,-13.28284 -40.8982,-27.26647 -79.698,-45.44297 -31.1098,-14.33148 -57.6765,-26.21612 -58.7252,-26.21612 -1.0486,0 -6.9865,-2.44684 -12.9288,-5.24322 -12.5837,-5.94232 -32.8616,-12.93565 -135.2792,-47.89047 -39.499,-13.28284 -87.3855,-28.65853 -106.6105,-33.90175 -19.2253,-5.59276 -53.83217,-15.73307 -76.90235,-22.72407 -23.07018,-6.99096 -52.08095,-15.73004 -64.66469,-19.57506 -29.7116,-8.7387 -64.66606,-32.50379 -80.04618,-53.47667 -10.836,-15.38012 -11.53615,-17.48229 -6.29293,-22.37597 4.89368,-4.89368 7.34327,-5.24289 15.03333,-1.39785 10.1369,4.54412 16.77626,2.09938 8.3871,-3.14383 -2.79638,-1.74774 -6.64313,-3.84259 -8.74041,-4.54169 -2.0973,-0.6991 -1.74809,-3.49898 1.39785,-6.99446 4.19458,-5.24322 5.59553,-5.24182 15.03333,-0.34814 5.59276,2.7964 12.23449,4.54447 14.33179,3.84537 2.44684,-1.04864 -1.74805,-4.19666 -9.08857,-7.3426 l -13.28217,-5.93953 13.9785,-14.33181 c 13.28284,-14.33148 14.68446,-14.67963 38.45371,-16.07783 25.51702,-1.39818 34.95449,-7.69074 11.88431,-7.69074 -11.88464,0 -12.2376,-0.35061 -6.99436,-6.29293 3.49548,-3.49548 4.894,-7.34227 3.84534,-8.74044 -1.39818,-1.04864 -6.64105,2.44613 -11.88429,8.03891 -5.59276,5.94232 -13.27976,10.48644 -17.82388,10.48644 -4.19458,0 -10.83633,2.44927 -14.33181,5.94475 -5.94232,5.24322 -6.29288,5.24114 -6.29288,-2.09938 0,-4.19458 -1.39993,-6.64 -3.49721,-5.59136 -1.74774,1.04864 -3.49204,7.33841 -3.49204,13.63027 0,6.99096 -2.79605,13.98542 -6.64109,17.4809 -6.6414,5.94232 -6.99539,5.94024 -8.04403,-7.3426 -1.3982,-13.28282 -1.39718,-13.28143 -4.19356,4.89507 -1.74774,10.1369 -5.24393,20.27345 -7.69077,22.37073 -4.19456,3.14594 -4.88989,1.3982 -4.88989,-10.48644 0,-7.69006 -1.39991,-14.33183 -3.49721,-14.33183 -2.09728,0 -3.49719,9.4364 -3.49719,21.32104 0,19.5747 -0.69772,20.97394 -5.5914,16.77936 -6.64142,-5.24322 -46.49025,-6.63967 -61.52083,-1.74599 l -9.78493,2.79569 v -19.57505 c 0,-10.836 -1.39991,-19.57505 -3.49721,-19.57505 -1.74774,0 -3.49718,6.64177 -3.49718,14.33183 0,12.23418 -0.69531,13.98192 -4.88989,10.48644 -3.14594,-2.44682 -4.89506,-10.4854 -4.89506,-19.9232 0,-8.7387 -1.05068,-16.77901 -2.09934,-18.17721 -1.04864,-1.04864 -2.09422,4.19565 -2.09422,11.53615 0,12.93328 -0.34918,12.93013 -6.64106,7.33737 -3.49548,-3.14594 -7.69042,-12.57989 -9.0886,-20.61951 -2.0973,-10.83598 -3.15002,-12.58722 -4.19866,-6.99446 -1.74774,9.08826 -7.33677,10.48576 -10.13315,2.7957 -1.3982,-2.79638 -6.29425,-5.24322 -11.18794,-5.24322 -5.59275,0 -13.63373,-4.54133 -20.62469,-11.18275 -6.29188,-6.29186 -11.53099,-9.43991 -11.53099,-7.3426 z m -250.41001,7.25556 c -9.6562,0.17478 -19.2702,4.27987 -27.8341,12.31949 -41.9458,38.4503 13.6337,100.32136 57.3273,63.96836 l 9.7901,-8.38708 33.9017,9.08337 c 31.8089,8.7387 34.6069,10.13933 40.1997,21.67443 6.991,13.98192 25.8663,27.96211 38.1004,27.96211 4.5442,0 13.98198,-2.44684 20.97294,-5.24324 12.23418,-5.24322 12.58338,-5.23972 27.61394,6.99446 11.5351,9.4378 17.82625,12.23245 29.01179,12.23245 7.69006,0 14.68104,-1.39609 15.72968,-3.14383 1.04864,-1.74774 -9.0879,-12.23489 -22.37072,-23.42043 -20.62334,-17.47742 -24.11678,-22.37354 -24.11678,-32.16088 -0.6991,-36.70256 -41.94515,-56.97286 -70.95765,-34.95132 l -11.5361,8.7352 -36.001,-9.08859 c -30.7603,-7.69006 -36.3541,-10.13794 -37.7522,-16.77936 -1.3982,-4.54412 -7.6918,-12.58303 -13.9837,-18.52535 -8.7387,-7.69006 -18.439,-11.44457 -28.0953,-11.26979 z m 1.0702,6.32367 c 15.0743,0.4261 29.5576,10.19352 34.0144,24.87454 3.1459,10.48646 5.2466,11.53231 43.6969,21.66919 l 40.1946,10.48646 6.6411,-6.98923 c 23.7693,-25.517 60.82549,-11.18798 67.11735,25.51458 2.0973,12.58372 5.94061,18.18 22.71893,33.21056 14.68102,12.93328 18.8732,18.52502 15.02818,19.92322 -8.38916,3.49548 -9.78427,2.79671 -28.31031,-11.88431 -17.47742,-13.98192 -18.17859,-14.33321 -28.31547,-8.74045 -22.02158,11.18554 -51.03338,1.04831 -55.22798,-19.57505 -2.4468,-12.58372 -5.592,-13.98332 -49.9847,-25.86795 l -32.8571,-8.7352 -10.1383,9.7849 c -7.6901,7.3405 -13.2804,9.43676 -25.5146,9.43676 -13.6324,0 -17.4774,-1.74356 -26.2161,-11.53092 -17.827,-19.92424 -11.8864,-47.88914 12.2324,-58.72514 4.8063,-2.09728 9.8959,-2.99386 14.9207,-2.85196 z m 382.21245,65.00759 c 3.90981,0.10205 8.19016,1.22235 15.6836,3.2106 35.65392,9.78734 47.18729,33.55556 22.71891,46.1393 -17.12786,8.7387 -69.21018,7.33981 -80.04616,-2.44753 -15.03058,-13.63238 -5.24357,-31.80888 22.37073,-41.94578 9.83104,-3.53919 14.24604,-5.08769 19.27292,-4.95659 z m 60.77326,37.81375 8.74041,8.38706 c 16.42876,15.38012 50.68277,32.50973 80.39437,40.19979 16.42876,4.19458 30.76128,8.38812 32.50902,9.43676 1.3982,1.04864 -0.69673,6.29292 -4.54175,11.53614 -26.21612,35.30436 17.47534,79.34777 55.57615,56.27759 12.5837,-7.69006 18.1772,-18.87695 18.1772,-36.35437 v -11.5361 l 36.0011,11.18791 c 19.5747,5.94232 38.1048,12.23349 40.9012,13.28213 2.7964,1.04864 33.5566,11.18523 68.1619,22.37077 l 62.5653,19.9232 -15.3763,4.54689 c -18.8756,5.24322 -30.7623,17.82727 -33.5587,35.30467 -1.7477,11.88464 -4.5451,14.33117 -27.2658,27.61399 -21.672,12.9333 -26.9121,14.67795 -38.7967,12.58065 -17.827,-2.44684 -21.3263,-5.59276 -31.8127,-26.2161 -6.6415,-12.93328 -8.0355,-19.92324 -6.2877,-30.40967 3.1459,-19.92424 -0.7013,-30.75887 -12.5858,-37.05075 -15.3803,-8.0396 -27.2669,-6.64004 -38.8019,4.89503 -13.6324,13.63238 -13.9778,32.15536 -1.0446,44.04 8.0396,7.69006 14.6793,10.14098 22.719,9.44188 1.0486,-0.34954 6.9889,10.48203 13.6303,23.41531 10.4864,22.02152 11.1889,24.81792 6.9944,36.70256 -3.146,10.13687 -3.146,15.38218 0,23.07224 3.845,9.4378 3.1421,12.23588 -10.8399,34.9565 -8.3891,13.63238 -17.1281,23.76622 -19.5749,23.06712 -7.3405,-2.79638 -27.6133,4.54341 -35.6529,13.28213 -17.47748,18.52604 -11.88334,55.22895 10.1381,66.76403 36.0036,18.52606 76.5529,-16.07784 61.1728,-52.78038 -5.2432,-12.9333 -5.2429,-12.93365 9.0886,-35.30473 11.1855,-17.12786 16.4256,-22.02254 23.067,-22.02254 19.9243,0 39.1488,-19.22583 39.4983,-39.15007 0.3496,-5.94232 6.2936,-11.53202 24.4701,-23.06709 23.0702,-14.33148 24.8203,-15.03333 32.1608,-9.79011 4.1946,3.14594 14.6794,5.59655 22.719,5.59655 14.3314,0 15.0291,0.69668 31.8075,25.5146 l 17.1275,25.16646 -6.2929,12.23759 c -20.9729,38.79984 6.9916,87.38363 49.6365,87.38363 21.672,0 30.4114,-3.4924 44.3933,-17.82388 28.6629,-29.0125 20.2728,-74.1032 -16.7793,-93.32836 -11.8847,-6.29186 -19.5747,-7.69481 -31.4594,-6.64617 l -15.7296,1.75114 -16.4261,-26.2161 c -15.0305,-24.46838 -16.0795,-27.26678 -14.3318,-44.0451 1.3982,-15.38012 0.3474,-20.2738 -7.3425,-31.45934 -4.8937,-6.99096 -8.3885,-12.93399 -8.039,-12.93399 5.2433,0 72.3572,28.31411 117.7985,49.63655 16.4287,7.69006 32.8575,15.38114 36.7025,16.77932 3.845,1.3982 13.9816,7.69177 22.3707,13.98365 l 15.3815,11.18281 -14.3318,6.29288 c -23.0701,10.48644 -31.8078,36.70085 -19.9232,59.42147 7.6901,14.68102 18.5247,20.9729 37.0507,20.9729 19.5747,0 36.3534,-11.88293 40.548,-27.96215 3.1459,-11.88464 5.5897,-10.83736 23.0671,10.83464 16.7783,20.97288 26.2171,42.29599 32.509,75.85261 9.7873,49.98537 -4.5424,89.13719 -38.4486,105.56595 -15.0306,6.99096 -19.9222,7.68868 -55.5761,5.5914 -21.672,-1.04864 -70.6129,-2.79673 -109.0632,-3.84537 l -69.9079,-2.44755 -31.4593,10.48644 c -59.0737,19.22516 -111.5072,13.63411 -156.9485,-17.47567 -67.4628,-45.79082 -161.83875,-145.41168 -233.84567,-247.8293 -15.03058,-21.672 -16.43118,-24.81858 -16.43118,-44.39328 0,-15.03056 3.84846,-32.50902 12.23762,-58.72514 6.6414,-20.27378 12.23247,-42.99371 12.23247,-49.98469 0,-29.71158 -17.8256,-66.76404 -31.80752,-66.76404 -8.7387,0 -8.38814,-2.79708 1.04966,-12.93398 z m -117.20955,3.11832 c 0.87932,0.15834 1.60025,0.63688 2.21196,1.42337 2.0973,2.44684 5.59072,6.295 8.3871,8.3923 4.19458,3.84502 3.49685,5.24251 -5.59141,8.03891 -8.38916,3.14592 -12.58405,8.38846 -19.57501,23.76858 -13.63238,31.10977 -14.33046,45.44094 -4.19356,74.80298 4.89368,13.63238 8.38983,25.17019 7.69073,25.51975 -0.34954,0.6991 -14.33421,2.09386 -30.76297,3.49204 l -29.71331,2.09936 -16.77417,-19.22686 c -19.22516,-22.72062 -30.76301,-25.16611 -51.73589,-10.83463 -9.4378,6.29186 -15.38043,8.04062 -24.81823,6.29288 -6.991,-1.04866 -12.9336,-0.35127 -14.3318,1.74603 -1.3982,2.09728 -4.5411,3.14798 -7.3375,2.09934 -2.7964,-1.04863 -7.3405,1.74604 -10.4864,6.98926 -6.991,10.48644 -11.8854,11.18352 -28.6637,3.14389 -16.7783,-7.69003 -20.9739,-4.1898 -32.509,27.61907 -11.535,31.80888 -19.2247,42.99411 -32.8571,48.58689 -17.1279,7.3405 -49.288,41.94507 -61.1727,65.71435 -20.6233,40.89714 -24.4646,85.63828 -10.1331,124.78768 3.845,11.18554 5.2422,12.23418 14.68,10.48644 15.0306,-3.14594 19.9249,-8.73668 44.3933,-50.3329 21.672,-36.70256 22.0202,-37.75187 21.3211,-60.12297 -1.0487,-19.22514 0.3478,-24.81962 6.9892,-34.9565 9.4378,-14.33148 30.0612,-22.37281 47.189,-19.22687 23.0702,4.19458 42.6483,31.11219 38.4537,53.13373 -2.4468,13.28282 17.8246,34.25295 36.0011,37.39889 14.33146,2.09728 38.80053,20.27791 33.90687,25.17159 -1.3982,1.3982 -7.33986,-2.09799 -13.28218,-7.69075 -8.38916,-8.03962 -13.6334,-10.13828 -27.26578,-10.13828 -14.68101,0 -17.82761,-1.39611 -28.66361,-13.63031 -10.836,-12.58372 -11.8833,-15.38116 -10.8347,-32.50902 1.0487,-16.42876 0.3493,-19.57535 -9.0885,-28.66361 -17.1279,-17.47742 -37.0528,-18.52539 -54.8798,-2.79573 -11.8846,10.48646 -15.0326,30.06116 -7.3425,47.189 l 5.9447,13.28217 -23.7686,42.64215 c -22.7207,41.24668 -24.1192,42.64725 -35.3047,42.64725 -19.9242,0 -37.7519,11.88635 -44.3933,29.71331 -5.9423,14.68102 -5.941,16.77832 -0.3482,31.45934 13.6324,35.30436 61.5187,40.54416 80.3943,8.73526 7.3406,-12.58374 7.3406,-36.35264 0,-48.58684 -5.5927,-9.4378 -5.2418,-10.48269 15.3815,-46.83571 11.8847,-20.62334 22.0223,-40.5496 23.4205,-44.04508 1.3981,-4.54414 6.642,-6.99269 18.1771,-8.74043 15.3802,-2.09728 17.1245,-1.39445 29.7082,10.83973 9.4378,9.08826 13.2835,16.07514 12.934,22.01746 -1.0487,19.57467 0.6991,25.52008 10.4864,34.60834 l 10.4865,9.78496 -18.1772,17.4808 c -21.3224,20.2738 -46.4882,40.89612 -69.9079,56.6258 -39.499,26.91519 -102.4163,31.80579 -157.6449,12.58065 l -27.614,-9.78494 -70.2613,2.44751 c -38.7997,1.39817 -87.7355,3.14491 -109.057801,4.19355 -32.5081,1.74774 -40.5495,1.39785 -50.6863,-3.84537 C 16.910989,723.5647 5.0289891,701.8927 5.3785891,660.64602 c 0,-62.21958 24.4683999,-105.91309 94.3779999,-167.78311 22.720801,-20.2738 76.900001,-49.98609 128.633001,-70.60943 9.7875,-3.84504 22.3694,-9.08928 27.9624,-11.5361 52.4322,-23.41974 216.7218,-76.89716 348.1519,-113.5997 49.98538,-13.98192 80.39572,-27.61744 101.01906,-45.09484 6.81618,-5.76754 10.87969,-8.19167 13.5177,-7.71629 z m 53.94269,21.35179 c 25.16745,0 49.63417,1.04552 54.17829,2.09416 11.88464,3.14594 22.37416,26.91486 24.1219,53.8301 1.39818,19.22514 -0.34819,28.31547 -10.83465,59.7748 -6.99096,20.62334 -12.58578,40.54687 -12.58578,44.74145 0,10.48644 -38.10178,49.28837 -48.23866,49.28837 -4.54414,0 -12.58445,-2.44684 -18.1772,-5.24322 -12.23418,-6.29188 -34.25435,-34.60664 -37.05075,-46.84084 -1.04864,-4.89366 -7.34223,-26.91349 -13.98365,-48.93503 -9.78734,-31.45932 -11.88085,-42.99885 -10.13311,-55.23303 2.79638,-19.57477 10.48303,-37.74883 19.22173,-46.48753 6.29186,-6.29188 11.88566,-6.98923 53.48188,-6.98923 z m 195.04891,36.00102 25.16642,7.69077 25.16653,8.03889 1.0496,15.38154 c 0.6991,12.93328 -0.697,17.12817 -8.3871,24.81821 -13.98193,13.98194 -36.35609,14.33013 -50.33801,0.34821 -11.88464,-11.5351 -12.23147,-35.65119 -0.69637,-47.88537 z m -367.02557,58.37696 c 11.88464,0 14.6814,1.74774 24.81827,15.72968 6.29189,8.38914 14.68034,16.77522 18.52536,17.82388 3.84504,1.39818 20.62198,2.10069 37.05074,1.75115 34.60528,-1.04864 32.51173,-3.14627 37.05585,38.10041 2.44684,23.76928 2.09355,24.46836 -42.29907,83.89156 -24.11882,32.85751 -29.70785,39.14767 -57.32215,69.9079 l -13.9836,15.72966 -8.74041,-9.43678 c -7.34052,-8.03959 -27.96457,-16.77931 -39.15011,-16.77931 -5.94227,0 -22.71687,-23.76858 -20.61957,-29.0118 3.845,-10.836 -5.5931,-33.20743 -19.575,-45.79115 -12.2342,-11.18556 -16.0803,-12.5858 -32.509,-12.5858 -21.3225,0 -37.4027,8.39324 -48.2387,25.17154 -5.9423,9.4378 -6.6401,15.37568 -5.5914,33.90174 1.7477,22.02152 1.3965,22.37108 -19.2269,57.67544 -22.3711,37.75122 -31.1111,47.54233 -41.5976,47.54233 -7.6901,0 -13.2814,-16.42876 -16.0778,-47.189 -2.0973,-24.81792 5.5944,-58.025 19.2268,-83.89155 10.836,-19.92424 40.8985,-51.38565 57.3273,-59.77481 16.0792,-8.38916 22.3677,-17.12852 34.9514,-49.6365 5.9423,-15.72966 12.5827,-28.66365 14.68,-28.66365 2.0973,0 10.4881,2.7988 19.2268,5.94474 l 15.3815,5.93955 7.3375,-9.43674 c 4.1945,-5.24322 10.1413,-9.4368 13.2872,-9.4368 3.146,0 6.9903,-1.39991 8.039,-3.49719 1.0486,-1.74774 8.7346,-2.44648 16.77418,-1.39784 12.2342,1.74774 15.73341,0.6991 21.32619,-5.24322 4.54412,-4.89368 10.83498,-7.33744 19.92322,-7.33744 z m 451.57262,14.28571 c 5.3743,-0.30585 10.7059,1.4443 16.1239,5.28934 7.3405,5.24322 8.0406,7.69038 6.2929,24.81823 -1.7478,16.7783 -0.7025,22.01917 8.7353,41.24431 10.1369,19.92424 12.2348,22.37039 23.4204,23.76857 6.9909,1.04866 15.7299,2.79673 19.5749,3.84537 4.8937,1.74774 15.7274,-3.14592 36.0012,-15.72966 26.5655,-16.42876 28.6636,-18.52399 28.6636,-29.35997 0,-8.7387 2.7998,-13.98159 12.2376,-22.37075 14.681,-12.93328 29.7106,-13.98227 46.1394,-3.84537 12.9332,7.69006 16.7799,18.524 13.9836,39.84644 -2.0973,13.63235 -0.6995,17.47537 17.1275,45.08967 l 19.575,30.06145 16.4261,-2.09421 c 32.5079,-3.84502 59.7747,20.97119 59.7747,54.17825 0,15.38012 -10.1396,32.51006 -25.5197,44.04514 -14.681,10.836 -43.3424,9.78667 -59.4215,-2.44751 -23.4197,-17.82696 -29.3642,-52.43086 -12.5858,-73.75328 l 6.9944,-8.74043 -19.9283,-29.71331 c -19.2252,-28.66294 -20.2738,-30.06184 -31.4594,-28.66364 -6.9909,1.04864 -16.7749,-1.04864 -24.4649,-5.24322 l -13.2822,-6.64107 -26.2161,16.77932 c -23.7692,15.03058 -26.5653,18.17583 -27.614,29.01183 -1.7477,16.77832 -16.0829,31.11116 -31.8126,31.11116 -11.8846,0 -13.6317,1.74536 -29.0118,25.51464 l -16.426,25.17154 5.5914,15.72968 c 5.2432,14.68102 5.2446,16.77524 -0.3482,28.31032 -11.1855,23.41974 -39.8523,29.3617 -58.0288,11.88428 -12.9332,-12.23417 -15.73,-25.5146 -9.0887,-41.24426 5.5928,-13.98194 15.382,-20.27586 34.9567,-23.07224 12.5837,-2.09728 15.0299,-4.19185 29.0117,-26.91247 13.6324,-22.72064 14.6798,-25.51602 10.8347,-35.65292 -3.1459,-8.0396 -3.1422,-13.63544 0.3533,-24.12188 4.1946,-12.93328 3.8457,-15.02887 -8.0389,-38.44859 -9.7873,-19.5747 -14.3325,-25.16848 -22.0227,-27.26576 -23.07,-5.59278 -30.4112,-29.71127 -12.9338,-43.34363 5.5928,-4.36936 11.0108,-6.72951 16.3851,-7.03537 z m -166.53898,32.35541 c -13.86482,0.0283 -27.59347,6.37789 -35.45831,18.37175 -6.64142,10.1369 -7.68697,35.65665 -2.09421,46.49263 10.1369,18.8756 45.43753,27.61432 62.56538,15.72968 7.69006,-5.24322 9.78872,-4.8947 36.35438,4.19356 22.02152,7.69006 28.66294,11.53304 31.45932,18.87354 8.03962,21.32244 28.31212,29.36239 47.53722,19.57505 13.2828,-6.99098 18.1772,-15.37876 18.1772,-31.80752 0,-25.16746 -31.1064,-42.64694 -50.68111,-28.31546 -5.59278,3.84504 -10.14032,3.49654 -33.2105,-4.19352 -26.21612,-8.73872 -26.9128,-9.08518 -30.75782,-23.06712 -2.0973,-8.0396 -8.39087,-18.87866 -13.98365,-24.12188 -8.25809,-7.95223 -19.12413,-11.75279 -29.9079,-11.73071 z m 1.59756,5.7911 c 23.7693,0 34.6022,11.18212 38.79678,40.19462 0.6991,4.89368 8.74143,9.7894 30.76297,17.829 26.21612,9.78736 30.41068,10.48746 36.70256,6.29288 3.84502,-2.79638 11.53341,-4.89501 17.47571,-4.89501 27.6143,0.34954 38.0984,34.25363 15.0282,50.33285 -16.0792,11.5351 -38.45,2.80053 -43.34368,-16.77417 -1.39821,-6.64142 -7.68729,-10.48817 -32.15567,-19.22687 l -30.40968,-10.83462 -15.03329,7.33743 c -13.28284,6.6414 -16.77765,6.99267 -29.01183,3.49719 -30.06114,-9.08826 -37.05039,-47.54127 -12.23247,-67.46553 4.54412,-3.84502 13.63306,-6.28777 23.4204,-6.28777 z m -574.31199,17.47571 c -36.7025,0 -56.6225,42.29326 -33.9017,71.30575 l 6.9891,8.74041 -11.5361,38.44859 -11.1828,38.8019 -15.7296,7.69077 c -10.4864,5.24322 -18.1776,12.23314 -22.0225,19.9232 -3.4956,6.64142 -8.0397,13.28182 -10.4866,14.68 -4.5441,2.44684 -76.2007,13.63546 -86.6873,13.63546 -3.1458,0 -6.9926,-3.49619 -8.7402,-7.69077 -3.8452,-8.7387 -23.767001,-19.92696 -36.001201,-20.2765 -34.9548,-0.6991 -58.7262,42.29738 -38.8019,70.26124 20.6233,29.36204 62.916401,26.56566 77.946801,-5.24322 3.1461,-6.99098 7.6914,-12.58581 10.1383,-12.58581 2.4469,0 14.3339,-1.7443 26.9176,-3.49206 58.7241,-8.7387 62.5674,-8.74278 69.908,1.04456 8.7388,10.836 28.3158,17.82969 42.6472,15.03331 33.5565,-6.64142 48.2336,-46.14309 27.2607,-72.70875 -6.2919,-8.38916 -6.2904,-8.73633 4.8951,-46.48752 11.535,-37.40166 11.8832,-37.75052 26.5642,-44.74148 8.0396,-3.84504 17.8307,-11.8867 21.3262,-17.82902 12.5838,-20.62334 5.5911,-51.03029 -13.9836,-62.56539 -5.5928,-3.14592 -17.1306,-5.94467 -25.5197,-5.94467 z m 1.6896,4.91551 c 25.2845,0.29952 46.8327,26.12736 37.4604,53.10811 -4.1946,11.53508 -23.0709,25.86794 -33.9068,25.86794 -5.9423,0 -8.7373,4.89436 -16.0779,28.66362 -18.8756,61.52048 -18.1744,56.27622 -8.3871,67.11222 16.4287,17.4774 13.6326,41.59622 -6.641,57.67544 -8.3893,6.64142 -13.2825,7.6911 -27.6141,6.29292 -14.3313,-1.3982 -18.8779,-3.49483 -26.9176,-13.28217 l -9.785,-11.5361 -32.1608,4.54172 c -52.4322,6.99096 -69.2115,10.83975 -69.2115,16.08299 0,2.79638 -4.8924,10.48471 -10.8347,17.47567 -9.7873,10.836 -12.585601,12.23247 -28.315201,12.23247 -14.3316,0 -18.8755,-1.74395 -27.6141,-10.13311 -9.7875,-9.78736 -11.8809,-16.77865 -10.1331,-35.30471 1.0485,-14.33148 6.6373,-21.32585 22.0174,-27.96727 22.0214,-9.78736 40.899601,-2.79468 53.133801,19.22684 3.8449,5.94232 5.2432,5.94097 47.189,0.34821 60.4716,-8.03962 59.4213,-7.687 59.4213,-17.8239 0,-11.53508 12.9364,-25.17019 29.3652,-30.76297 l 13.6303,-4.54172 12.2326,-40.54795 12.2375,-40.5479 -9.0886,-11.18795 c -16.4287,-19.5747 -10.4881,-49.28424 12.2325,-60.81932 5.8986,-2.9493 11.9326,-4.24222 17.7675,-4.17308 z m 512.84761,7.67027 v 15.72968 c 0,8.38916 1.0507,23.41801 2.09934,33.20535 2.0973,17.82696 2.09422,18.52673 -13.63544,33.90685 -20.9729,20.97288 -37.40066,25.86383 -56.6258,16.42603 -17.12786,-8.38916 -36.00583,-27.26476 -37.40401,-36.70256 -0.34956,-3.84502 0.35156,-19.22445 2.0993,-34.25501 l 2.79571,-27.26582 11.53612,13.28727 c 6.29186,7.3405 17.1258,16.0782 24.11676,19.92322 10.836,5.94232 13.63682,5.94061 23.77372,1.74603 6.29186,-2.44682 18.1765,-11.53266 26.2161,-20.27136 z m -109.4062,26.91245 c 0.34956,0.34956 -1.75047,13.28353 -4.54685,28.66365 -2.44684,15.38012 -4.89503,38.44928 -4.89503,51.38255 v 23.7686 h -21.66927 c -18.8756,-0.34956 -22.72402,-1.39614 -27.96724,-8.3871 -5.59278,-7.69006 -5.24222,-8.38814 11.5361,-30.40968 9.78736,-12.23418 24.1212,-32.16048 32.16082,-44.04512 8.0396,-11.88464 14.68237,-21.32244 15.38147,-20.9729 z m 117.51169,1.74093 c 1.33331,0.14593 5.37224,6.17001 14.61342,19.93347 62.21958,91.23207 180.37029,214.9704 237.69619,248.17748 15.0306,9.08826 15.3781,9.43709 13.6303,23.76857 -4.1945,31.1098 -28.3116,61.52152 -59.4214,74.45482 -18.1765,7.69004 -58.37359,10.13688 -82.84197,5.24322 -26.21612,-5.59278 -63.2723,-24.46702 -82.847,-42.29398 -8.73872,-8.0396 -11.88293,-11.88498 -6.98925,-9.0886 11.53508,7.69006 21.67163,6.98755 32.85717,-1.75115 5.94232,-4.54414 9.08861,-10.48611 9.08861,-17.12751 0,-6.64142 3.4941,-12.58168 10.83462,-18.87356 9.08824,-7.69006 12.93499,-8.73699 24.47009,-6.98925 8.7387,1.3982 17.12886,0.69569 22.02254,-1.75115 6.99098,-3.84504 10.13484,-3.14253 24.11676,6.99437 11.53513,8.03962 16.43123,13.98226 16.43123,19.57501 0,11.5351 15.0277,25.51465 26.9125,25.51465 30.4107,0 39.1517,-40.89712 11.1879,-52.43222 -5.2432,-2.44684 -12.9329,-3.14421 -17.1275,-1.74603 -5.2432,1.74774 -13.2866,-1.04899 -26.5696,-9.08859 -16.42867,-10.1369 -18.87344,-12.93293 -18.87344,-22.37073 0,-15.38012 -13.2842,-27.26443 -31.11114,-27.61397 -12.2342,-0.34956 -15.03091,-2.09865 -24.81827,-15.38147 -8.38916,-11.88464 -9.78563,-16.08164 -6.98925,-21.67442 11.5351,-21.32243 -3.84742,-48.93503 -26.9176,-48.93503 -16.07919,0 -32.50387,15.72968 -32.50387,31.45934 0,14.33148 16.42774,31.45934 30.40968,31.45934 7.69006,0 11.88464,3.49513 20.97288,17.12751 9.4378,14.68102 10.83631,19.22755 9.08857,32.16083 -2.79638,19.92426 -15.03229,30.75647 -34.95653,31.10603 -21.672,0 -32.15637,12.23489 -29.36,33.90687 2.09731,16.42876 -18.87866,-19.57607 -24.12188,-41.59759 -3.4955,-13.28284 -3.1425,-22.36942 1.75116,-48.93508 4.54414,-26.21612 5.24222,-47.88912 4.19358,-111.15731 -1.04866,-43.34398 -2.79538,-84.93678 -4.19358,-92.62684 -1.07049,-6.1171 -1.67195,-9.56052 -0.63492,-9.44703 z m -670.7178,8.04918 c -6.7724,-0.0874 -13.7616,1.39578 -20.7526,4.5417 -21.6721,9.43782 -31.8131,39.85023 -19.9284,61.17265 22.3712,41.2467 84.5932,26.56295 84.5932,-20.27651 0,-18.87562 -7.6918,-31.80923 -24.4703,-40.54793 -6.1171,-3.14594 -12.6694,-4.80252 -19.4419,-4.88991 z m 0.5788,5.04352 c 14.7136,0.19664 28.7404,9.63646 35.2943,25.36612 4.5441,11.18554 4.8909,14.67966 0.6964,26.5643 -6.6414,18.52604 -19.5731,27.61534 -38.4485,27.2658 -12.9333,-0.34956 -17.1266,-2.09934 -26.5643,-12.5858 -19.9243,-21.67198 -13.2825,-51.38085 14.3318,-63.61503 4.8063,-2.0973 9.7856,-3.06092 14.6903,-2.99539 z m 1285.97701,8.5868 c 2.0973,0 11.5351,8.03789 20.9729,17.47569 l 17.1275,17.48083 -4.895,15.02817 c -6.2919,17.4774 -24.8142,29.01148 -41.5925,25.16646 -12.9333,-2.7964 -26.9183,-16.42807 -29.3651,-29.01181 -2.7964,-13.98192 7.691,-32.8555 22.0225,-39.84646 6.6414,-3.49548 13.9819,-6.29288 15.7297,-6.29288 z m -256.8616,14.21915 c -33.3232,0.5669 -59.1286,41.81743 -31.8638,71.07025 6.6414,7.34052 6.6387,7.69042 0.6963,30.06149 -5.5927,20.62334 -7.3374,22.71825 -17.8238,25.51465 -17.4774,4.54412 -27.6184,12.58711 -35.658,27.96723 -18.1765,36.00346 7.3429,76.54902 47.8904,76.54902 20.2738,0 36.3534,-9.43645 45.7912,-26.5643 l 7.6907,-13.28218 65.7144,0.34821 66.0625,0.70149 10.1383,12.58068 c 18.526,22.37108 45.7891,27.96555 69.9079,13.98363 34.2557,-19.5747 35.3078,-65.71475 1.7512,-90.53267 -23.0702,-17.12786 -61.1707,-6.99198 -74.8031,19.92324 l -6.9943,13.98365 h -67.4603 c -61.171,0 -67.4639,-0.70012 -69.2116,-6.29288 -1.0487,-3.14594 -6.6397,-10.48646 -12.2325,-15.72968 l -10.4864,-9.79011 7.3374,-23.0671 c 6.2919,-20.62333 8.3926,-23.42246 17.4808,-25.51974 12.2342,-2.79638 26.5623,-18.52571 29.7082,-32.85717 3.1459,-14.3315 -5.9413,-33.90482 -19.9232,-42.29396 -7.9304,-4.85 -16.0223,-6.88457 -23.7123,-6.75375 z m -713.77461,3.60472 c 11.5858,-0.008 23.3153,5.88191 28.6022,15.73481 2.7964,4.54414 3.8443,14.32704 2.7957,23.4153 -1.7478,14.33146 -0.695,16.43078 14.6851,33.55864 14.3315,15.72968 17.8232,17.82696 25.8628,15.72968 13.28282,-3.14594 25.51941,1.05104 32.16083,11.18794 5.94232,8.7387 5.59378,9.08482 -9.43678,24.46494 -8.38916,8.38916 -17.82696,15.38149 -20.9729,15.38149 -11.88465,0 -23.77265,-22.71993 -17.48085,-34.25503 2.7964,-5.59276 0.3493,-9.78769 -14.3318,-24.81825 -15.7296,-16.07922 -19.222,-18.17894 -28.3103,-16.4312 -5.5928,1.04866 -13.2852,2.09937 -16.4312,2.09937 -4.5441,0 -12.9315,11.88532 -27.9621,39.15008 -12.2342,21.672 -24.4694,43.69181 -27.2658,48.93503 -5.2432,8.7387 -4.8926,10.1379 1.0497,16.77932 4.5441,5.24322 6.641,12.58274 6.641,25.16646 0,15.38012 -1.3954,18.87525 -11.1828,27.61397 -29.0125,26.2161 -72.01,3.84568 -66.0676,-34.25508 3.4954,-21.32242 24.467,-36.35466 47.5371,-34.95648 7.3406,0.6991 11.19,-3.49311 23.7738,-25.51465 8.3891,-14.33146 20.2738,-36.00583 26.2161,-47.89045 10.4864,-20.62334 10.836,-22.01848 5.2432,-28.31034 -6.991,-7.69006 -7.6948,-31.10911 -1.403,-39.49827 2.4469,-2.79638 7.3429,-7.3395 11.188,-9.4368 4.5878,-2.6216 9.8233,-3.84662 15.0896,-3.85048 z m 234.839,2.44753 19.22173,17.48082 c 30.76023,28.3134 52.78486,28.66262 81.79736,1.39786 l 17.82387,-16.77936 v 27.61397 c 0,27.26476 0,27.61465 -13.28213,40.54793 -7.34052,7.34052 -20.62132,16.08093 -29.36002,19.22687 -15.38012,5.94232 -16.42942,5.94265 -33.90684,-1.39785 -9.78734,-4.19458 -23.42008,-13.98571 -30.0615,-21.32623 -11.88464,-12.93328 -12.23247,-14.67758 -12.23247,-40.1946 z m 479.92891,0.7015 c 24.1189,0 35.653,11.18725 35.653,34.9565 0,15.72968 -1.3996,19.22381 -10.1383,26.56431 -5.2432,4.89368 -14.3318,9.4378 -19.5751,10.48644 -8.7387,1.74776 -10.1328,4.89435 -16.7742,28.66362 l -6.9943,26.2161 10.4864,8.73533 c 5.5928,4.89368 11.884,12.58474 13.2821,16.77932 3.146,8.0396 3.8489,8.03995 73.7585,9.08859 l 70.6043,1.04966 4.5468,-10.48644 c 21.3225,-51.03404 92.2787,-38.80121 92.2787,16.07785 0,18.17652 -8.0362,31.46242 -24.465,39.85158 -22.7207,11.88464 -53.8342,2.44376 -63.272,-18.87868 l -4.89,-10.83463 h -71.6589 -71.6591 l -5.9396,13.98363 c -17.1279,40.89714 -78.648,35.65459 -90.5326,-8.03893 -7.3406,-27.26476 10.8353,-54.87973 39.4982,-60.12295 11.8847,-2.44684 12.584,-3.14694 19.575,-27.26578 6.6414,-23.76928 6.6387,-25.516 0.6964,-30.40968 -17.8269,-16.07922 -18.8725,-37.75326 -2.0942,-54.53158 10.1369,-10.13688 14.3311,-11.88426 27.6139,-11.88426 z m -548.44412,48.93501 9.44193,9.08861 c 8.38916,8.0396 11.88222,9.08891 30.75782,7.69073 18.52606,-1.04866 21.32109,-0.34817 21.32109,4.89505 0,5.24322 -3.49377,6.29288 -22.71893,6.29288 -21.32242,0 -23.77097,0.69877 -34.95651,11.88431 -11.88464,11.18554 -12.23249,12.58474 -12.23249,37.7522 0,24.46838 0.7008,26.91249 8.74043,32.15571 12.58371,8.38916 12.2304,30.06285 -0.35334,40.19975 -11.88464,9.08826 -22.36664,9.43644 -33.90174,0.34818 -9.08824,-7.3405 -21.67535,-8.39051 -48.94011,-4.89503 -14.68104,2.09728 -16.07614,3.14765 -17.82394,13.98362 -4.5441,24.11884 -31.8123,40.19977 -59.4266,34.95653 -12.9332,-2.44682 -27.9614,-16.08363 -20.2714,-18.53047 5.9423,-2.0973 37.7519,-27.2631 54.8798,-43.69186 13.9819,-12.93328 13.9823,-12.93051 19.575,-5.93955 4.8937,6.64142 7.6884,6.98719 33.20539,4.88989 26.2161,-2.44684 28.31407,-3.14658 33.90685,-12.93392 3.14592,-5.59278 9.08895,-11.18388 12.93397,-12.23252 6.29185,-1.74773 6.98925,-4.89534 6.98925,-29.71326 0,-24.81792 -0.6974,-27.96046 -6.98925,-29.7082 -8.0396,-2.09731 -9.43987,-10.83909 -2.09935,-13.63547 2.44682,-1.04864 9.78599,-8.73699 16.07785,-17.47569 z m 187.35817,16.08299 v 22.71893 c 0,21.32244 -0.69637,23.41801 -11.18283,33.20535 -16.42876,15.38012 -35.30329,25.86793 -46.13929,25.86793 -12.93328,0 -34.25779,-11.5351 -49.28837,-26.21612 -11.18554,-11.53508 -12.23247,-13.98021 -12.23247,-33.20535 0,-11.5351 0.69739,-20.9729 1.74603,-20.9729 0.6991,0 5.24085,3.84298 9.78499,8.3871 11.88464,11.88464 35.30673,23.07224 47.89045,23.07224 15.03058,0 34.60628,-9.09065 48.23866,-21.67439 z M 688.4108,594.48618 c 18.73361,0.26286 20.60422,4.50794 20.60422,25.61191 0,11.53508 2.79879,35.303 5.94471,52.7804 3.49548,17.12786 5.94093,38.1011 5.59139,45.79116 -0.34954,33.90618 -35.65321,81.79563 -76.20081,104.51627 -56.97634,32.15842 -128.28212,29.36102 -165.68372,-6.29288 -13.982,-13.63238 -28.3155,-41.94716 -28.3155,-57.32727 0,-11.53508 4.8954,-17.82286 8.7404,-11.531 4.1946,6.64142 29.3586,17.47571 40.1946,17.47571 23.7693,0 42.6466,-13.98431 50.6862,-37.40403 4.54416,-13.28284 4.89334,-13.28147 27.61398,-16.07785 20.62334,-2.44684 24.12124,-2.09834 32.16084,4.19352 9.08826,7.34052 26.5653,9.4378 38.10041,5.24322 6.99095,-2.79638 15.72965,-19.57228 15.72965,-30.75782 0,-4.54414 -3.8481,-12.93264 -8.39224,-18.5254 -6.99096,-8.0396 -8.73768,-14.68066 -9.43678,-32.85716 -0.6991,-20.62336 0,-23.4218 9.43678,-33.5587 7.69006,-8.38914 13.28592,-10.83323 24.1219,-11.18277 3.40811,-0.0874 6.42775,-0.13485 9.10397,-0.0973 z m 204.59831,8.39737 c 2.22838,0 4.59056,0.26419 6.51308,0.78851 18.1765,4.89366 25.1671,20.61924 17.1275,37.74709 -5.59278,11.5351 -5.24528,11.88875 8.3871,30.41479 12.93328,17.82696 14.68102,18.87393 26.2161,17.47573 10.1369,-1.04864 14.3339,0.34885 21.6744,8.03891 4.89368,5.59278 8.73528,13.97986 8.73528,18.87354 0,13.63238 34.95523,36.35644 51.03443,33.21049 20.2738,-3.84504 33.9051,19.2245 19.9232,34.25506 -12.9333,14.33148 -31.4566,5.24253 -37.3989,-18.17719 -1.3982,-5.24324 -8.0393,-12.5858 -17.12755,-17.82902 -12.93328,-8.03962 -18.1765,-9.0862 -41.94578,-8.3871 -24.46836,0.34954 -29.01559,1.7491 -39.85157,10.13825 -7.34052,5.94232 -11.18181,11.88227 -10.13315,15.02821 2.09728,5.59276 -3.4982,18.52943 -9.79008,22.72401 -7.3405,4.89366 -19.22377,2.79503 -26.56429,-4.89503 -9.4378,-10.1369 -8.74043,-18.87868 1.74603,-29.36512 7.3405,-6.99096 11.18588,-8.38881 19.57504,-6.64107 14.33148,3.14594 32.85651,-10.83327 35.65289,-26.91249 1.04864,-6.29186 2.79672,-13.98294 3.84536,-16.77932 1.39818,-3.49548 -3.14317,-14.3301 -11.18279,-26.5643 -12.23418,-18.52604 -15.3791,-21.32482 -25.16644,-21.67436 -15.72968,-0.34956 -24.47009,-9.4368 -24.47009,-25.16646 0,-12.58374 5.94061,-21.32004 17.47569,-25.51462 1.3982,-0.52432 3.49619,-0.78851 5.72454,-0.78851 z m -284.31168,8.82744 c 1.74774,0 5.9413,1.74433 9.43678,3.49207 5.94232,3.14592 6.63902,6.29221 4.54174,24.81827 -1.74774,17.82694 -3.84164,22.72026 -13.97852,32.85716 -9.78736,9.78734 -16.4308,12.93328 -33.55866,15.72966 -20.97288,3.14594 -30.40968,1.048 -30.40968,-7.6907 0,-1.74774 13.63,-18.17277 30.75786,-36.34927 16.7783,-18.17652 31.81228,-32.85719 33.21048,-32.85719 z m 107.31196,19.57506 9.78495,8.73528 c 15.03058,13.98192 39.84748,26.56701 51.38255,25.86791 12.2342,-0.6991 30.76195,-9.78836 45.44299,-22.02254 l 10.48644,-8.73532 1.04966,9.78496 c 2.44684,19.22516 -2.44784,31.80855 -16.77934,43.34363 -30.41068,24.46838 -54.87768,23.76726 -84.23972,-2.0993 -10.48646,-9.4378 -17.12753,-26.56122 -17.12753,-44.38818 z m 7.99796,57.5474 c 1.85015,-0.2799 6.46189,2.6165 13.67131,8.51513 22.02152,18.52606 51.03333,18.52606 76.20079,0 13.98192,-10.1369 16.42876,-7.33814 10.48644,11.18792 -11.18554,36.353 -18.52331,42.99033 -47.88537,42.99033 -25.16746,0 -37.05139,-8.73564 -44.74145,-33.55355 -3.4955,-11.53508 -6.99029,-22.71962 -8.03895,-25.16644 -0.91757,-2.49055 -0.80284,-3.80544 0.30723,-3.97339 z m -144.49585,59.5495 c -6.37925,-0.17478 -12.40996,1.92352 -19.40094,6.29288 -15.38007,9.4378 -22.37077,20.61962 -22.37077,36.34927 0,27.26476 17.4778,44.39329 45.79122,44.39329 11.53508,0 16.42499,-2.09322 25.86279,-11.53102 22.37108,-22.37108 18.5281,-53.13129 -8.38712,-68.16187 -8.38914,-4.7189 -15.11593,-7.16777 -21.49518,-7.34255 z m 230.01565,1.00871 c 0.0624,0.006 0.11506,0.0192 0.15874,0.0409 0.34954,0.69911 -2.44786,11.18623 -6.29288,23.42043 -6.64142,21.32244 -22.01743,48.58685 -27.26065,48.58685 -4.54414,0 -18.87833,-25.16682 -25.51975,-44.74152 -8.0396,-23.76925 -8.38781,-26.56768 -0.34819,-23.0722 11.18554,4.89368 45.08933,4.5455 51.73075,-0.34818 3.60472,-2.29391 6.59625,-3.97339 7.53198,-3.88633 z m -231.6695,6.43625 c 19.79465,-0.1928 40.27656,15.26202 40.27656,35.19719 0,44.39262 -59.42318,53.48461 -73.40512,10.83973 -4.8937,-14.33148 3.1456,-33.90616 17.1275,-41.94578 4.97018,-2.75267 10.45857,-4.03713 16.00106,-4.09114 z m 384.05579,22.00208 c -7.51528,0.17476 -14.33148,4.10719 -18.35128,11.79725 -14.68102,27.26474 18.17582,55.58257 39.49826,34.26013 11.18553,-11.18554 11.53478,-23.76957 1.39788,-35.30465 -6.8162,-7.34052 -15.02958,-10.92751 -22.54486,-10.75273 z m 4.94112,5.53507 c 4.08758,-0.0245 7.8833,1.83005 12.01232,5.56583 12.58374,11.18554 3.84812,36.00106 -12.58064,36.00106 -21.672,-0.34956 -28.66571,-27.26443 -9.79011,-38.1004 3.82317,-2.29392 7.17922,-3.44736 10.35843,-3.46649 z m -240.01052,3.1183 c -1.04866,0 -6.64109,4.19491 -11.88431,9.08859 l -10.13827,8.74043 5.24322,23.0671 c 5.24322,23.07018 5.24528,23.41903 -3.14388,34.25503 -11.88464,15.72966 -11.53781,39.49858 0.69637,53.83006 l 8.74041,10.48644 -6.98925,33.55869 c -4.19456,18.17649 -7.34256,33.90788 -7.34256,34.95652 0,0.6991 -5.2456,3.84094 -11.18792,6.28778 -45.09172,19.2252 -33.55254,82.847 14.6851,82.847 12.93328,0 19.22481,-2.0976 27.61397,-9.0886 18.8756,-15.7297 20.62367,-44.7435 3.84537,-62.5705 l -6.99439,-7.3425 6.99439,-29.70823 c 3.84502,-16.0792 8.03619,-32.85989 8.73529,-37.40404 1.04864,-4.19455 4.19664,-7.69074 7.34256,-7.69074 3.14594,0 10.83429,-5.24287 17.47571,-11.88429 10.48644,-10.48644 11.88426,-13.97988 11.88426,-29.35997 0,-14.33148 -1.74394,-19.22723 -10.1331,-28.31549 -5.59278,-5.94232 -14.6824,-11.88532 -20.62472,-12.93396 -9.78734,-2.0973 -10.48885,-3.49548 -16.43117,-31.45934 -3.49548,-16.07922 -6.9889,-29.35998 -8.38708,-29.35998 z m -1.74603,10.48644 c 0.34954,0 3.14556,11.53645 6.64106,25.86793 5.24322,24.11882 6.29186,26.21304 15.72966,28.31032 23.76928,5.24322 37.40029,32.50762 26.56431,53.83006 -3.14594,5.94234 -11.885,13.98401 -19.57506,17.82903 -14.68102,7.34052 -14.67966,7.69143 -26.56428,57.32727 -6.29188,26.56569 -6.29086,26.91389 1.04964,31.80749 19.92426,13.982 17.82527,48.2394 -3.49715,61.1727 -6.29188,3.845 -14.68275,6.9892 -19.22687,6.9892 -19.22513,0 -39.15008,-19.573 -39.15008,-38.4486 0,-13.9819 10.48917,-28.3165 25.51973,-34.6083 l 14.68001,-6.2929 8.3871,-36.00109 c 4.89366,-22.02153 6.99096,-37.7529 5.24322,-40.19974 -20.62334,-27.26476 -22.36664,-42.99373 -7.68562,-60.47113 l 9.08351,-10.83463 -5.59143,-23.07224 c -5.59276,-22.37108 -5.59176,-23.76622 1.04966,-28.31034 3.49548,-2.79638 6.99303,-4.89503 7.34259,-4.89503 z m 106.04211,77.29147 c -6.42296,0.0437 -12.8906,2.23073 -20.05634,6.60009 -19.57472,11.88464 -23.41736,33.20945 -9.78498,53.13369 l 8.03895,12.23251 -7.69077,29.35998 c -6.29186,24.46836 -9.08926,30.06176 -16.77932,33.90686 -14.33148,6.9909 -23.42042,20.9743 -23.42042,36.3544 0,18.1765 17.83004,37.7522 34.60834,37.7522 22.72064,0 42.29396,-18.1758 42.29396,-39.4983 0,-4.5441 -3.84298,-13.9819 -8.3871,-20.9729 l -8.39222,-12.2375 7.34252,-30.06152 c 6.99098,-27.96386 8.7377,-30.40695 19.92324,-36.34927 25.51702,-12.58374 26.56772,-48.93776 2.09936,-63.96834 -6.99098,-4.19458 -13.37227,-6.29559 -19.79522,-6.2519 z m 0.22017,6.60009 c 19.22516,0 31.45934,11.88226 31.45934,30.75786 0,14.68102 -12.23385,32.16079 -22.37075,32.16079 -6.99096,0 -7.69006,1.39923 -15.72966,32.509 -9.08826,33.20709 -9.08961,35.30169 0.34819,47.88539 12.93328,17.8269 7.68902,40.8975 -11.53614,51.0344 -22.37108,11.5351 -51.38358,-8.7384 -47.189,-32.8572 2.0973,-13.9819 14.33217,-28.6637 23.42043,-28.6637 8.38916,0 11.18347,-6.2908 18.87353,-40.89607 6.29186,-28.3134 6.29222,-28.31442 -1.39784,-37.75222 -10.48644,-13.63238 -9.7877,-34.25231 1.39784,-45.43785 6.29186,-6.64139 12.23762,-8.7404 22.72406,-8.7404 z m -541.803,18.1772 c -9.0884,-1.74774 -10.4866,2.79638 -10.4866,36.70256 v 32.85717 l -10.1331,-7.69075 c -14.6809,-10.836 -40.548,-12.58409 -56.2776,-3.84537 -23.4197,12.93328 -34.6073,51.03403 -23.0722,78.64833 6.2919,15.0306 23.7699,29.7126 39.1501,32.509 13.6325,2.4469 42.6452,-6.6404 45.7912,-14.68 2.7963,-7.3405 7.6887,-2.4482 5.5913,5.5914 -1.3982,5.5928 0,6.9893 7.3427,6.9893 h 9.0885 l -0.7014,-82.84193 c -1.0487,-71.65736 -1.7488,-83.19107 -6.2929,-84.23971 z m 356.53905,9.43676 -7.69073,1.04968 c -4.89366,0.6991 -17.12477,12.9326 -33.55353,34.25501 -13.98192,18.17653 -26.564,34.25472 -27.96218,35.6529 -1.3982,1.3982 -15.03466,-13.9826 -30.41481,-33.90686 -20.9729,-27.6143 -29.7105,-36.70254 -35.6529,-36.70254 h -8.0389 v 78.64832 78.64837 h 8.7404 8.7353 l 0.7015,-63.6151 1.0497,-63.26681 22.7189,29.01183 c 12.58374,16.0792 24.467,31.45863 26.5643,34.25498 2.79638,3.8451 9.08995,-2.0979 29.71329,-28.66357 13.98194,-18.52606 26.91589,-33.5587 28.66363,-33.5587 1.3982,0 2.44752,28.3134 2.44752,62.91867 0,60.4718 0.34786,62.9187 6.98926,62.9187 6.64142,0 6.98925,-2.4455 6.98925,-78.99654 z m -626.037651,0.34819 c -6.991,0 -7.3429,1.04797 -5.9446,60.47115 1.0486,59.07364 1.398,61.17564 10.4864,74.80804 18.1765,27.6143 62.921,33.9045 89.836201,12.2325 19.5747,-15.7296 24.4688,-34.6036 24.8183,-96.12403 v -51.38766 h -8.3923 -8.7353 l -1.0497,58.37695 c -1.0487,54.87904 -1.748,59.42144 -9.0886,69.90794 -15.380001,21.3224 -51.381801,23.0719 -69.907901,3.4972 -10.1369,-10.836 -14.6851,-38.4487 -14.6851,-90.88087 0,-39.1494 -0.3464,-40.90122 -7.3374,-40.90122 z m 1274.103011,42.4271 c -5.2432,-0.0437 -10.3113,1.44255 -17.1275,4.41371 -13.2828,5.59276 -18.5298,12.23691 -21.3262,25.51973 -3.1459,15.72968 9.4382,27.96315 35.3047,34.25505 20.2738,5.2432 33.2105,14.6814 33.2105,24.8183 0,18.8756 -38.4537,26.2123 -54.1834,10.1331 -4.8936,-4.5441 -8.7352,-10.1352 -8.7352,-12.2325 0,-1.7477 -2.4469,-3.4972 -5.2433,-3.4972 -9.0882,0 -5.9436,13.9823 5.5914,24.8183 9.0883,8.3892 13.9813,10.1383 29.0118,10.1383 31.4594,0 49.9854,-18.5275 41.9458,-41.5976 -3.4955,-9.7874 -17.8279,-18.1742 -42.9954,-25.5147 -17.8271,-5.24319 -23.4187,-11.88492 -19.9232,-24.8182 2.7962,-12.23418 22.3738,-18.87393 36.0061,-12.23251 5.2433,2.44684 11.8799,9.08351 14.3268,14.32673 2.4468,5.24322 6.9936,9.44188 9.79,9.44188 5.9424,0 5.9437,-0.70287 -0.3483,-16.08299 -3.4953,-8.0396 -9.0878,-13.63202 -17.1274,-17.1275 -7.5152,-3.14594 -12.9339,-4.71822 -18.1772,-4.7619 z m -891.70111,0.56832 c -20.9729,-1.74774 -40.8951,9.09067 -50.3329,26.91763 -8.3891,15.38012 -8.736,45.44024 -0.6963,61.86904 10.1369,21.672 38.7957,33.558 63.9632,25.8679 12.5837,-3.4955 34.9565,-24.1226 34.9565,-31.8127 0,-7.69 -14.679,-2.7956 -24.1168,7.6908 -8.7387,9.7873 -12.5837,11.5361 -26.2161,11.5361 -12.9333,0 -17.8269,-1.7477 -26.2161,-10.4864 -5.5928,-5.9424 -11.5371,-14.6787 -12.5858,-20.2715 l -2.4475,-9.4419 h 47.8905 48.2335 l -2.0941,-14.67995 c -2.0974,-15.72968 -9.7905,-28.31034 -24.122,-38.79678 -5.2432,-3.84504 -16.7783,-7.69314 -26.2161,-8.39224 z m 628.35721,1.0497 c -11.9283,1.04864 -23.1118,5.41867 -31.32621,12.93395 -26.56566,24.46838 -23.07053,75.50212 6.64111,95.77592 15.3801,10.8359 45.0907,11.1827 61.8689,0.6963 10.836,-6.6414 22.0227,-22.3673 22.0227,-31.106 0,-7.6901 -10.4866,-3.1477 -15.7297,6.9892 -7.6902,14.6811 -23.7717,22.0206 -42.6473,19.9233 -18.8756,-2.0973 -31.106,-12.9333 -36.34927,-31.4594 -5.24322,-19.9242 -1.05172,-36.70051 12.58067,-50.33289 9.7874,-9.78733 13.9813,-11.5361 29.0119,-11.5361 19.2251,0 33.9068,8.74077 39.15,23.07225 3.4955,8.7387 13.9837,11.53541 13.9837,3.84535 0,-8.03962 -13.6331,-26.56941 -23.4205,-31.81263 -11.1855,-5.76754 -23.8576,-8.03789 -35.786,-6.98925 z m -126.75391,1.39785 c -3.14592,0 -6.63834,1.04934 -7.33744,2.44754 -3.84501,6.29186 -44.39326,106.26018 -44.39326,109.40618 0,9.0882 10.48267,2.0973 15.37633,-10.4865 l 5.59655,-13.9785 h 30.06149 30.06145 l 5.24322,13.9785 c 3.84504,9.4378 7.6884,13.9837 12.23252,13.9837 5.94232,0 5.94061,-1.0497 1.74603,-11.5361 -2.44684,-5.9424 -13.28353,-32.1585 -23.42043,-57.6755 -13.98192,-34.25571 -20.62232,-46.13932 -25.16646,-46.13932 z m 231.40331,0 c -6.6414,0 -6.9944,2.44546 -6.9944,58.02362 0,53.1313 0.3506,57.6744 6.2929,56.6258 4.5441,-0.6991 6.2902,-5.2412 6.9893,-18.8736 0.6991,-14.681 2.7984,-19.574 12.5858,-29.0118 l 11.5361,-11.1879 23.0671,30.0615 c 12.9333,16.4287 25.8672,29.7133 28.6636,29.7133 2.7964,0 5.2432,-1.048 5.2432,-2.7957 0,-1.3982 -10.1351,-15.7321 -22.7189,-32.1609 -12.5837,-16.0792 -22.7189,-31.1067 -22.7189,-33.5535 0,-2.09729 9.7833,-12.935 22.0173,-24.4701 17.4776,-16.42876 20.2767,-20.62061 15.0334,-21.66925 -4.5441,-1.04864 -16.4294,8.38541 -39.15,31.10605 l -32.8573,32.8572 v -32.50393 c 0,-29.71158 -0.3478,-32.16079 -6.9892,-32.16079 z m -736.67271,10.8807 c 6.9035,-0.13109 13.804,1.70541 20.4454,5.55043 10.4865,6.29188 19.2252,22.7162 15.7297,28.65852 -2.4468,3.49547 -62.2189,4.54377 -70.9576,1.39787 -6.991,-2.79638 2.4472,-22.0195 14.3318,-29.36002 6.6414,-4.0198 13.5471,-6.11572 20.4507,-6.2468 z m -160.3997,0.48132 c 10.9316,0.19243 23.1125,4.27991 29.8414,11.0087 8.0395,8.38916 9.0886,11.88535 9.0886,33.9069 0,22.7206 -0.6969,25.5166 -9.785,32.8572 -13.982,12.2341 -31.1128,14.682 -45.0948,6.2928 -16.0791,-9.4378 -20.6251,-20.2771 -19.2268,-43.6969 1.0486,-20.62332 7.6924,-32.15809 21.6744,-38.10041 3.8231,-1.63852 8.5334,-2.35578 13.5022,-2.26829 z m 666.05316,8.382 c 0.12185,0.0104 0.23007,0.07 0.31746,0.17919 1.39818,1.3982 7.33981,15.03229 13.28213,29.71331 l 10.83463,27.2658 h -24.47009 c -13.28282,0 -24.11676,-1.048 -24.11676,-2.7958 0,-1.3981 4.89231,-14.6826 10.83463,-29.71322 5.89863,-14.09116 11.49004,-24.80546 13.318,-24.64928 z"/>
</svg>